<svg xmlns="http://www.w3.org/2000/svg" width="32" height="32" fill="none"><path fill="#0182FD" d="M16.229 18.82a.914.914 0 1 1 1.828-.001.914.914 0 0 1-1.828 0zm12.038-9.372a.914.914 0 1 0 0 1.828.914.914 0 0 0 0-1.828zM8.533 24.533a.914.914 0 1 0 0 1.829.914.914 0 0 0 0-1.829zM6.248 7.39a.914.914 0 1 1 1.828 0 .914.914 0 0 1-1.828 0zm-3.2 8.077a1.295 1.295 0 1 0 0 2.59 1.295 1.295 0 0 0 0-2.59z"/><path fill="#0182FD" fill-rule="evenodd" d="M7.932 15.467c.07-2.39.525-4.753 1.297-6.7a1.295 1.295 0 0 1 .6-2.443h.702c.986-1.367 2.218-2.21 3.64-2.21h7.01c2.298 0 4.1 2.2 5.167 5.257h-2.043a1.143 1.143 0 1 0 0 2.286h2.671c.079.375.147.757.206 1.143h-.058a1.143 1.143 0 0 0 0 2.286h.282c.012.266.02.533.023.8.028 2.808-.48 5.62-1.441 7.81H21.41a1.143 1.143 0 0 0 0 2.285h3.213c-.94 1.14-2.099 1.828-3.442 1.828h-7.01c-3.475 0-5.709-4.603-6.163-9.752H6.171a1.295 1.295 0 1 1 0-2.59h1.761zm8.05 7.314c.46 1.207 1.05 2.319 1.77 3.276 1.226-1.63 2.076-3.705 2.544-5.943h-.486a1.295 1.295 0 0 1 0-2.59h.852a21.07 21.07 0 0 0 .041-2.546 19.324 19.324 0 0 0-.612-4.083h-2.262a1.295 1.295 0 1 1 0-2.59h1.327a11.631 11.631 0 0 0-1.404-2.286c-1.773 2.23-2.746 5.397-2.936 8.686h-.95a1.143 1.143 0 1 0 0 2.286h.943c.06 1.189.222 2.37.484 3.504h-3.788a1.143 1.143 0 0 0 0 2.286h4.478zm1.16-4.876a.914.914 0 1 0 0 1.828.914.914 0 0 0 0-1.828z" clip-rule="evenodd"/></svg>